<svg xmlns="http://www.w3.org/2000/svg" viewBox="0 0 24 24" fill="none" aria-hidden="true">
  <title>Commit / I can help</title>
  <path
    d="M10.05 4.575a1.575 1.575 0 1 0-3.15 0v3m3.15-3v-1.5a1.575 1.575 0 0 1 3.15 0v1.5m-3.15 0 .075 5.925m3.075-.75V4.575m0 0a1.575 1.575 0 0 1 3.15 0V15M6.9 7.575a1.575 1.575 0 1 0-3.15 0v8.175a6.75 6.75 0 0 0 6.75 6.75h2.018a5.25 5.25 0 0 0 3.712-1.538l1.732-1.732a5.25 5.25 0 0 0 1.538-3.712l.003-2.344a1.875 1.875 0 0 0-3.75-.006l-.001.37M6.9 7.575V12m6.27-4.425-.07 5.925m0 0a1.575 1.575 0 0 1-3.15 0v-5.925m3.15 5.925a1.575 1.575 0 0 0 3.15 0V7.575"
    stroke="currentColor"
    stroke-width="1.5"
    stroke-linecap="round"
    stroke-linejoin="round" />

  <circle cx="18.25" cy="5.75" r="4.25" fill="white" />
  <circle cx="18.25" cy="5.75" r="3.35" stroke="#000001" stroke-width="1.5" />
  <path
    d="M16.45 5.75l1.2 1.2 2.35-2.55"
    stroke="#000001"
    stroke-width="1.5"
    stroke-linecap="round"
    stroke-linejoin="round" />
</svg>
